<svg width="136" height="133" viewBox="0 0 136 133" fill="none" xmlns="http://www.w3.org/2000/svg">
<path d="M116.827 61.092L94.1433 45.3866C98.4968 45.5306 102.949 43.6554 105.827 39.9948C110.344 34.2505 109.312 26.3172 103.528 22.3124C97.7437 18.3075 89.3614 19.7229 84.8447 25.4673C81.9664 29.1279 81.3705 33.673 82.8014 37.5339L60.1176 21.8285L42.405 44.3554C42.7919 40.1875 41.0651 36.0347 37.3789 33.4826C31.5946 29.4777 23.2123 30.8931 18.6956 36.6375C14.1789 42.3819 15.2104 50.3151 20.9948 54.32C24.6809 56.8721 29.4189 57.1953 33.5487 55.6188L15.8361 78.1458L38.52 93.8512C37.0891 89.9903 37.685 85.4452 40.5633 81.7846C45.08 76.0402 53.4622 74.6248 59.2466 78.6297C65.031 82.6345 66.0625 90.5678 61.5458 96.3121C58.6675 99.9727 54.2154 101.848 49.8619 101.704L72.5457 117.409L116.827 61.092Z" fill="#FF4466"/>
<path d="M73.3645 33.2006C73.3771 33.2072 73.39 33.2135 73.4029 33.2195C74.3591 33.6644 75.4057 33.8784 76.526 33.8784C77.6646 33.8784 78.7164 33.6659 79.659 33.2149L79.6774 33.2058C80.601 32.7403 81.3948 32.125 82.0479 31.3593L82.0626 31.3418C82.7036 30.5544 83.1879 29.6629 83.5172 28.6752C83.8689 27.6561 84.0429 26.5888 84.0429 25.479C84.0429 24.3457 83.8713 23.2772 83.5172 22.2825C83.1884 21.265 82.7016 20.3651 82.0479 19.5986C81.3936 18.8315 80.5966 18.2296 79.6684 17.7946C78.7242 17.3093 77.6686 17.0796 76.526 17.0796C75.3974 17.0796 74.3438 17.3127 73.3839 17.7947C72.4746 18.2313 71.69 18.8341 71.0379 19.5986C70.3856 20.3634 69.8882 21.2613 69.5368 22.2772L69.5367 22.2772L69.533 22.2884C69.2027 23.2812 69.0429 24.3474 69.0429 25.479C69.0429 26.5829 69.2038 27.6448 69.5298 28.6597C69.5332 28.6702 69.5367 28.6807 69.5405 28.6912C69.892 29.6724 70.3855 30.5584 71.0233 31.3418L71.0379 31.3593C71.6865 32.1198 72.4646 32.7341 73.3645 33.2006ZM71.5286 39.4663C70.9763 39.4663 70.5286 39.914 70.5286 40.4663V96.0796C70.5286 96.6319 70.9763 97.0796 71.5286 97.0796H81.5234C82.0757 97.0796 82.5234 96.6319 82.5234 96.0796V40.4663C82.5234 39.914 82.0757 39.4663 81.5234 39.4663H71.5286Z" fill="#1E90FF" stroke="white" stroke-width="2" stroke-linejoin="round"/>
<path d="M54.3645 33.2006C54.3771 33.2072 54.39 33.2135 54.4029 33.2195C55.3591 33.6644 56.4057 33.8784 57.526 33.8784C58.6646 33.8784 59.7164 33.6659 60.659 33.2149L60.6774 33.2058C61.601 32.7403 62.3948 32.125 63.0479 31.3593L63.0626 31.3418C63.7036 30.5544 64.1879 29.6629 64.5172 28.6752C64.8689 27.6561 65.0429 26.5888 65.0429 25.479C65.0429 24.3457 64.8713 23.2772 64.5172 22.2825C64.1884 21.265 63.7016 20.3651 63.0479 19.5986C62.3936 18.8315 61.5966 18.2296 60.6684 17.7946C59.7242 17.3093 58.6686 17.0796 57.526 17.0796C56.3974 17.0796 55.3438 17.3127 54.3839 17.7947C53.4746 18.2313 52.69 18.8341 52.0379 19.5986C51.3856 20.3634 50.8882 21.2613 50.5368 22.2772L50.5367 22.2772L50.533 22.2884C50.2027 23.2812 50.0429 24.3474 50.0429 25.479C50.0429 26.5829 50.2038 27.6448 50.5298 28.6597C50.5332 28.6702 50.5367 28.6807 50.5405 28.6912C50.892 29.6724 51.3855 30.5584 52.0233 31.3418L52.0379 31.3593C52.6865 32.1198 53.4646 32.7341 54.3645 33.2006ZM52.5286 39.4663C51.9763 39.4663 51.5286 39.914 51.5286 40.4663V96.0796C51.5286 96.6319 51.9763 97.0796 52.5286 97.0796H62.5234C63.0757 97.0796 63.5234 96.6319 63.5234 96.0796V40.4663C63.5234 39.914 63.0757 39.4663 62.5234 39.4663H52.5286Z" fill="#FFD700" stroke="white" stroke-width="2" stroke-linejoin="round"/>
</svg>
