<svg width="199" height="133" viewBox="0 0 199 133" fill="none" xmlns="http://www.w3.org/2000/svg">
<path d="M20.6131 32.7864H5.00006V18.9995H198.751V32.7864H29.1908V96.5135H20.6131V32.7864Z" fill="#1E90FF"/>
<path d="M117.784 62.0124L95.1005 46.307C99.454 46.451 103.906 44.5758 106.784 40.9152C111.301 35.1709 110.27 27.2376 104.485 23.2328C98.7009 19.2279 90.3186 20.6433 85.8019 26.3877C82.9236 30.0483 82.3277 34.5934 83.7586 38.4543L61.0747 22.7489L43.3621 45.2758C43.7491 41.1079 42.0222 36.9551 38.3361 34.403C32.5517 30.3981 24.1694 31.8135 19.6527 37.5579C15.136 43.3023 16.1676 51.2355 21.9519 55.2404C25.6381 57.7925 30.3761 58.1157 34.5059 56.5393L16.7933 79.0662L39.4771 94.7716C38.0462 90.9107 38.6421 86.3656 41.5204 82.705C46.0371 76.9606 54.4194 75.5452 60.2038 79.5501C65.9881 83.5549 67.0197 91.4882 62.503 97.2325C59.6247 100.893 55.1725 102.768 50.819 102.624L73.5029 118.33L117.784 62.0124Z" fill="#FF4466"/>
<path d="M180.989 53.005H164.389V41.5457H196.053L176.078 85.0541H194.955V96.5135H161.151L180.989 53.005Z" fill="#1E90FF"/>
<path d="M91.0738 41.5456H99.1955V46.2039C101.226 44.0922 103.201 42.6326 105.122 41.8251C107.061 40.9866 108.954 40.5674 110.802 40.5674C113.381 40.5674 115.75 41.2661 117.908 42.6636C120.067 44.0611 121.914 46.1729 123.451 48.9989C124.64 47.4461 125.811 46.1418 126.963 45.0859C128.115 43.999 129.268 43.1294 130.42 42.4773C131.573 41.7941 132.743 41.3127 133.932 41.0332C135.121 40.7227 136.347 40.5674 137.609 40.5674C140.261 40.5674 142.667 41.1885 144.825 42.4307C146.984 43.6419 148.822 45.4586 150.34 47.8809C151.877 50.3032 153.057 53.3311 153.88 56.9646C154.721 60.567 155.142 64.7439 155.142 69.4954V96.5134H147.048V71.7313C147.048 68.719 146.792 66.0327 146.28 63.6725C145.786 61.2812 145.081 59.2782 144.167 57.6633C143.27 56.0174 142.191 54.7752 140.929 53.9367C139.685 53.0671 138.313 52.6324 136.813 52.6324C135.99 52.6324 135.149 52.7721 134.289 53.0516C133.429 53.3 132.588 53.7038 131.765 54.2628C130.96 54.8218 130.201 55.536 129.487 56.4056C128.774 57.2441 128.152 58.2378 127.622 59.3869V96.5134H119.527V71.7313C119.527 68.719 119.271 66.0327 118.759 63.6725C118.265 61.2812 117.561 59.2782 116.646 57.6633C115.75 56.0174 114.662 54.7752 113.381 53.9367C112.119 53.0671 110.729 52.6324 109.21 52.6324C108.278 52.6324 107.336 52.8032 106.384 53.1448C105.451 53.4553 104.546 53.9056 103.668 54.4957C102.808 55.0857 101.994 55.8 101.226 56.6385C100.476 57.477 99.7991 58.4242 99.1955 59.48V96.5134H91.0738V41.5456Z" fill="#1E90FF"/>
<path d="M74.3216 34.121C74.3343 34.1276 74.3471 34.1339 74.36 34.1399C75.3163 34.5848 76.3629 34.7988 77.4832 34.7988C78.6218 34.7988 79.6736 34.5863 80.6161 34.1353L80.6346 34.1262C81.5581 33.6607 82.352 33.0455 83.0051 32.2798L83.0197 32.2622C83.6607 31.4748 84.1451 30.5833 84.4743 29.5956C84.8261 28.5765 85.0001 27.5092 85.0001 26.3994C85.0001 25.2661 84.8285 24.1976 84.4744 23.2029C84.1455 22.1854 83.6588 21.2855 83.0051 20.519C82.3507 19.7519 81.5538 19.15 80.6255 18.715C79.6813 18.2298 78.6258 18 77.4832 18C76.3545 18 75.301 18.2331 74.341 18.7151C73.4317 19.1517 72.6471 19.7545 71.9951 20.519C71.3428 21.2838 70.8453 22.1817 70.494 23.1976L70.4939 23.1976L70.4901 23.2088C70.1599 24.2017 70.0001 25.2678 70.0001 26.3994C70.0001 27.5034 70.161 28.5652 70.4869 29.5801C70.4903 29.5906 70.4939 29.6011 70.4976 29.6116C70.8491 30.5928 71.3426 31.4788 71.9804 32.2622L71.9951 32.2798C72.6436 33.0402 73.4218 33.6545 74.3216 34.121ZM72.4858 40.3867C71.9335 40.3867 71.4858 40.8344 71.4858 41.3867V97C71.4858 97.5523 71.9335 98 72.4858 98H82.4806C83.0329 98 83.4806 97.5523 83.4806 97V41.3867C83.4806 40.8344 83.0329 40.3867 82.4806 40.3867H72.4858Z" fill="#FFD700" stroke="white" stroke-width="2" stroke-linejoin="round"/>
<path d="M55.3216 34.121C55.3343 34.1276 55.3471 34.1339 55.36 34.1399C56.3163 34.5848 57.3629 34.7988 58.4832 34.7988C59.6218 34.7988 60.6736 34.5863 61.6161 34.1353L61.6346 34.1262C62.5581 33.6607 63.352 33.0455 64.0051 32.2798L64.0197 32.2622C64.6607 31.4748 65.1451 30.5833 65.4743 29.5956C65.8261 28.5765 66.0001 27.5092 66.0001 26.3994C66.0001 25.2661 65.8285 24.1976 65.4744 23.2029C65.1455 22.1854 64.6588 21.2855 64.0051 20.519C63.3507 19.7519 62.5538 19.15 61.6255 18.715C60.6813 18.2298 59.6258 18 58.4832 18C57.3545 18 56.301 18.2331 55.341 18.7151C54.4317 19.1517 53.6471 19.7545 52.9951 20.519C52.3428 21.2838 51.8453 22.1817 51.494 23.1976L51.4939 23.1976L51.4901 23.2088C51.1599 24.2017 51.0001 25.2678 51.0001 26.3994C51.0001 27.5034 51.161 28.5652 51.4869 29.5801C51.4903 29.5906 51.4939 29.6011 51.4976 29.6116C51.8491 30.5928 52.3426 31.4788 52.9804 32.2622L52.9951 32.2798C53.6436 33.0402 54.4218 33.6545 55.3216 34.121ZM53.4858 40.3867C52.9335 40.3867 52.4858 40.8344 52.4858 41.3867V97C52.4858 97.5523 52.9335 98 53.4858 98H63.4806C64.0329 98 64.4806 97.5523 64.4806 97V41.3867C64.4806 40.8344 64.0329 40.3867 63.4806 40.3867H53.4858Z" fill="#FFD700" stroke="white" stroke-width="2" stroke-linejoin="round"/>
</svg>
